<?xml version="1.0" encoding="utf-8"?>
<!-- Generator: Adobe Illustrator 28.0.0, SVG Export Plug-In . SVG Version: 6.00 Build 0)  -->
<svg version="1.1" id="Capa_1" xmlns="http://www.w3.org/2000/svg" xmlns:xlink="http://www.w3.org/1999/xlink" x="0px" y="0px"
	 viewBox="0 0 1000 156" style="enable-background:new 0 0 1000 156;" xml:space="preserve">
<style type="text/css">
	.st0{fill:#72AC3F;}
</style>
<path class="st0" d="M792.9,16.5c12.9-5.5,24.1-2.7,35.1-2.3c2.8,0.1,6.9,0.4,6.9,2.8c-0.3,7.9,6.4,5.4,11.3,4.7
	c10.4-1.4,20.6-0.4,30.2,2.2c8.2,2.2,16.5,3.9,24.8,3.1c19-1.8,37.5,3.3,56.6,1.4c13.2-1.3,25.4,6.4,39.2,5.5
	c1.2-0.1,2.9,0.4,3.1,1.8c0.2,1.8-1.7,2.4-3.3,2.6c-3.8,0.6-7.6,0.8-11.5,1.2c0.9,1.9,5.7,1.6,4.9,4.4c-0.8,2.7-4.3,2.4-6.9,2.8
	c-5.7,0.9-11.8-0.4-17.1,1.5c-0.1,4.1,7.9,2.5,6.3,5.9c-1.6,3.6-7,2.9-11.1,3.1c-7,0.4-14.1-0.4-21,1.6c6.2,3.6,5.3,6.2-3.2,9.6
	c-1.8,0.7-3.7,1.3-5.6,1.9c0.5,0.3,1.1,0.6,1.4,1c1.5,2.1,0.7,5.7,6.7,4.6c3.6-0.7,7.7,0,11.6,0.4c2.6,0.3,6.6,0.3,6.4,3
	c-0.3,2.9-4.3,2-6.9,2.3c-1,0.1-2.1,0.1-3.5,0.1c2.1,1.7,6.7,1,6.4,4.3c-0.2,2.4-3.3,2.6-5.5,3.2c-18.6,5.1-37.8,7.6-57.9,7.1
	c2.3,1.8,7.9,0,7.7,3c-0.2,3.5-5.3,2.7-8.5,3c-3.8,0.4-7.7,0.4-11.6,1.7c5.7,0,11.4-0.4,17,0.1c4.3,0.4,11.7,0,11.4,3.7
	c-0.3,4-7.4,2.6-11.6,2.5c-6.6-0.1-13.3-1.5-19.9,0.6c1.4,1.7,6.4,1,5.1,4.1c-0.8,1.9-3.9,2.2-6.4,2.2c-13.1,0.1-26.1,0.2-39.2,0.3
	c-7.4,0-14.7,0.5-23.4,2.6c7,2.9,13.2,1.2,19,1.5c6.8,0.4,17.8-1.1,18.5,3.6c0.6,4-10.9,2.8-17.2,3.3c-8.7,0.8-17.6-0.4-26.5,1.8
	c2,2.5,6.9,1.2,8.7,4.8c-13.3,1.2-21.1,13.6-37,9.8c-2.9-0.7-7,0.3-8.3-2.5c-3.9-8.1-7.7-3-11.5-0.1c-11.3,8.2-22.9,8.6-35.1,1.2
	c-2.4-1.4-5.3-1.8-6.6-0.3c-8,8.9-20.2,6.1-30.9,6.8c-7.6,0.5-14.5,0.7-22,3.4c-7.5,2.7-17.9,2.3-26.1-2.3
	c-3.9-2.2-7.9-4.1-11.7,0.3c-1.6,1.8-4.5,2.4-6.6,1.7c-14.1-4.9-29.3,2.3-43.8-2.8c-6.4-2.2-15,2.3-22.8,1.3
	c-17.3-2.1-34.8,0.9-52.3-1.9c-6.7-1.1-14.4,0.1-21.3,2.6c-7.7,2.9-16,4.9-23.4-1c-3.4-2.8-6.4-1.8-8.8,0.7
	c-2.5,2.5-6.4,3.8-9.3,2.6c-10.3-4.2-20.2,0-30.2,0c-3.8,0-6.7-0.3-10.3-2.6c-4.4-2.8-11.4-0.2-16.6,0.5c-6.6,0.9-10.5,0.9-14-3.7
	c-3.6-4.9-6.8-1.5-9.7,0.8c-3,2.4-3.4,7.2-9.6,6.4c-7.9-1-17.6-0.9-22.6-5.4c-6.8-6-8.6-3.5-11.3,1.5c-1.8,3.3-5.5,4.8-9.4,3.7
	c-9.4-2.6-18.8-1-28.2-1c-9.8,0-19-6-29.4-1.7c-1.6,0.7-4-0.7-5.4-2c-3.8-3.6-7.2-3.2-12.6-0.9c-7.5,3.1-16.2,3.7-22.3-2.8
	c-2.3-2.5-4.1-2.2-7.8-1.7c-9.5,1.3-19.2,3.9-28.9,0.3c-3.2-1.2-6.1,0-9.2,0.3c-7.6,0.8-15.5,2.2-20.1-5c-2.3-3.7-5.1-1.4-7.1,0.7
	c-5.4,5.4-13.3,5.2-19.1,2.3c-12.5-6.2-25.8-3.5-38.7-3.5c-16.1,0-32.3-0.9-48.4,0.7c-2.4,0.2-6.3-0.3-6.1-3.2
	c0.2-2.3,3.6-2.2,6-2.4c9.8-0.7,19.6-1.3,29.5-2.2c-14.4,0-28.9-1-43.3,0.4c-1.7,0.2-3.6,0.4-5.2,0.1c-2.3-0.4-5.7-0.2-5.9-2.5
	c-0.3-2.7,3.3-2.5,5.5-2.7c11.9-1,23.8-1.8,35.8-2.5c20.7-1.2,41.5-2.3,62.2-4c-17-2.6-34.1-1.1-51.2-1.1c-2.8,0-5.9,0.8-8.3,0.1
	c-4.5-1.4-7.2-5.1-7.3-8.2c-0.1-3,5.3-2.6,8.6-3.1c3.3-0.5,7,0.3,10.5-2.1c-7.7-1.5-14.9,0.1-22.1-0.2c-2.1-0.1-4.8-0.3-5.3-2.1
	c-0.8-2.8,2.8-2.8,4.9-3.1c4.5-0.7,9.1-0.7,13.6-1.4c2.5-0.4,6.7,0.4,7.2-2.1c0.6-3-3.5-2.6-6.1-3.2c-0.9-0.2-1.7-0.8-3.6-1.7
	c28.8-10.7,59-7.3,90.3-11c-15.5,0-28.2,0.2-40.9-0.1c-2.5-0.1-9.2,3.2-6.9-3.7c0.5-1.6-3.8-0.2-5.9-0.4c-6-0.6-15.1,5.4-16.8-5
	c-0.3-2.2-4.9-0.1-7.5,0.1c-6.8,0.4-14.7,4-18.6-4.2c-1.1-2.4-5-1.4-7.7-1.6c-2.5-0.2-5.6-0.2-5.6-2.6c0-2.3,3-2.5,5.4-3.1
	c9.3-2.1,19-1.1,28.4-2.1c31.4-3.5,63-5.4,95.4-6c-17.8-5.8-35.8-4.2-53.7-4c-2.8,0-7.4,1.1-7.6-2.4c-0.1-2.5,3.9-2.6,6.7-2.9
	c2.1-0.2,4.2-0.2,6.3-0.4c11.3-1.2,23.9,0.3,31-9.3c-2.4-2.4-7.4,0.1-11.7-2c4.3-3.6,10.4-2.5,15.3-3.9c-0.8-3.5-4.3-3.4-7.4-3.5
	c-4.6-0.2-9.2,0.1-13.7-0.2c-2.9-0.2-7.3-0.1-7.3-3.1c0-2.6,4.2-2.3,6.9-2.7c10.8-1.9,21.8-0.7,32.7-1.5c5-0.4,10.1,0.1,12.8-5.2
	c2.1-4,9.3-4.6,14.1-4c14.9,2,29.2-2.1,43.8-2c11.3,0,22.6,0,33.8-0.3c43.6-1.3,87.3-3.9,130.9-3.7c22,0.1,44,1,66-0.8
	c9.8-0.8,19.6-2.1,29.4-2.9c4.1-0.3,10.1-1.4,6.7,5.2c-2,3.9,3.1,2.6,5.1,2.5c9.1-0.4,18.3-1.1,27.4-1.7
	c34.6-2.2,69.2-1.3,103.9-0.2c2.8,0.1,5.6-0.4,8.4-0.6c2.8-0.2,6.8-1.5,8.2-0.5c11.4,8.2,25.2,0.2,36.8,3.4c14.5,4,29.2,2.4,43.9,3
	c21.2,0.9,42.3-0.4,63.3-2.4C792.9,7.9,799.3,6.8,792.9,16.5"/>
</svg>
