<?xml version="1.0" encoding="UTF-8"?><svg id="Capa_2" xmlns="http://www.w3.org/2000/svg" viewBox="0 0 102.62 200"><defs><style>.cls-1{fill:#fff;stroke-width:0px;}</style></defs><g id="Capa_1-2"><path class="cls-1" d="m16.42,119.41c.09-.51.47-.76,1.13-.76.11,0,.23.08.37.23.14.15.21.29.21.42-.11,2.11-.16,4.14-.16,6.08s.13,5.29.38,10.06c.25,4.76.38,7.96.38,9.59s-.02,2.65-.05,3.04c-.03.39,0,1.09.12,2.09.11,1,.16,2.27.16,3.79s-.23,2.4-.69,2.61v-.14l-.18.18-.9-.37v-.14c0-.2.05-.39.14-.58l-.18-.42c.06-1.88.09-3.32.09-4.32l-.35-15.56.09-5.32c0-.54-.03-1.29-.08-2.27-.05-.97-.09-1.62-.1-1.94-.06.06-.09.17-.09.32-.09,2.05-.54,5.16-1.34,9.34-.51,3.22-1.16,6.16-1.97,8.81-.05.17-.13.4-.25.69-.28.66-.42,1.17-.42,1.53l.14.23c-.03.11-.1.52-.21,1.23-.25,1.56-.68,2.33-1.29,2.33-.69,0-1.06-1.23-1.11-3.68,0-.4-.04-.92-.13-1.56-.08-.64-.79-4.08-2.1-10.31-1.32-6.23-2.07-9.48-2.25-9.74-.12,2.85-.19,6.04-.19,9.57l.14,15.05.23,4.51c0,.57-.12.98-.37,1.23-.89,0-1.34-.82-1.34-2.47l.25-7.91-.18-9.59.14-11.24c0-1.8-.02-3.16-.05-4.07l.9-.51c.74.09,2.13,5.14,4.16,15.14.42,2.1.74,3.64.97,4.65s.39,1.71.49,2.14c.09.42.19.93.3,1.51.25,1.19.37,2.05.37,2.59.18-.48.49-1.78.9-3.91l.67-3.33c.18-.89.61-3.16,1.28-6.81.67-3.64,1.11-5.97,1.33-6.97.45-2.05.69-3.66.74-4.83l-.09-.23Z"/><path class="cls-1" d="m32.79,141.46l.53,12.34v.51c0,.37-.05.6-.14.69-.25.22-.52.32-.81.32s-.53-.08-.72-.23c-.18-.15-.28-.35-.28-.58.09-.18.14-.37.14-.55l-.14-.95v-4.69c0-.42-.83-.77-2.5-1.08-1.66-.3-2.9-.45-3.7-.45-.31,0-.59.57-.83,1.72-.25,1.15-.49,2.41-.72,3.78s-.46,2.23-.69,2.57c-.74,0-1.23-.19-1.46-.58.49-.71.97-2.43,1.42-5.18.45-2.74.82-4.74,1.1-5.98.28-1.24.77-3.93,1.49-8.08s1.2-6.8,1.46-7.96c.25-1.16.45-2.02.59-2.58s.32-1.21.53-1.96c.51-1.82.96-2.73,1.36-2.73.49,0,.82.11.98.34.16.22.3.75.42,1.57.12.82.23,1.87.35,3.14.12,1.27.22,2.44.31,3.5.29,3.33.47,5.52.54,6.57.07,1.05.21,1.8.43,2.27-.06.96-.09,1.78-.09,2.46s.14,1.28.42,1.79Zm-7.77,4.02c1.33.45,2.92.67,4.79.67.39,0,.67-.03.86-.09l.23.09c.29,0,.44-.15.44-.44,0-6.6-.62-13.71-1.85-21.34-.02-.09-.05-.26-.1-.51-.05-.25-.08-.44-.08-.58-.39,1.09-.59,1.79-.62,2.08l.14.28c-.11.11-.29.65-.53,1.63-.25.98-.59,3-1.03,6.06-.44,3.06-.76,5.02-.95,5.89-.19.87-.4,1.66-.61,2.37-.45,1.57-.67,2.77-.67,3.61v.28Z"/><path class="cls-1" d="m48.24,152.76l.14,1.71c0,.92-.4,1.39-1.2,1.39-.55,0-.93-.59-1.13-1.78-.11-.55-.17-.86-.18-.92-3.08-9.72-5.02-16.83-5.83-21.31-.03-.14-.05-.35-.07-.65-.03-.63-.18-1.08-.44-1.34l.09-.23c-.2-1.17-.35-1.98-.45-2.44-.1-.45-.21-.97-.34-1.54-.22-1-.49-1.9-.83-2.7-.09.65-.14,1.14-.14,1.48s.03.6.09.79c-.22.74-.32,1.83-.32,3.28v12.97c0,1.51.11,3.76.32,6.75.22,2.99.32,5.24.32,6.75l-.32.37h-1.09l-.14-.37c.06-.25.09-.88.09-1.9l-.53-16.48v-6.2l.35-8.95-.05-.99c0-.4.1-.67.31-.8s.48-.2.81-.2.62.1.87.29c.25.19.37.5.37.91s.07.87.21,1.36.34,1.04.6,1.65c.26.61.47,1.16.61,1.66.15.5.28,1.3.4,2.4.12,1.1.27,2.08.44,2.92.17.85.45,1.99.83,3.42.39,1.43.83,3.02,1.33,4.76.5,1.74.82,2.89.96,3.43.14.55.32,1.24.55,2.09.49,1.76.75,3,.79,3.72.22.32.38.95.5,1.87.12.92.37,1.56.77,1.9.2-.45.3-1.2.3-2.27l.18-16.48-.14-7.33.14-1.8c0-.34-.05-.54-.14-.6l.14-.39c0-1.94-.06-3.24-.18-3.88.12-.43.52-.65,1.18-.65.51,0,.76.52.76,1.55-.2.4-.3.92-.3,1.57l.05,1.6c0,.68-.06,1.16-.18,1.43l-.14,14.96c0,.29.03.72.09,1.27l-.09.21v5.96l.09,1.78c0,1.88-.15,3.18-.46,3.88v.09Z"/><path class="cls-1" d="m57.97,155.56l-5.62.18c-.32,0-.56-.2-.72-.6.68-1.19,1.18-2.55,1.5-4.09.32-1.54.59-3.25.79-5.13.2-1.88.4-3.27.6-4.18,1-7.55,1.69-12.54,2.06-14.96.46-3.17.71-5.21.74-6.1l-3.19.23c-1.42,0-2.13-.32-2.13-.95l.35-.37c.25.06.62.09,1.13.09l4.44-.49c.51,0,.76.29.76.86-.34.76-.57,1.95-.68,3.58-.12,1.63-.24,2.88-.36,3.74-.12.86-.56,4.21-1.32,10.03-.76,5.83-1.39,10.3-1.9,13.41-.05.34-.24.91-.58,1.71-.34.8-.51,1.43-.51,1.9l3.07-.23c1.33,0,1.99.32,1.99.95l-.44.42Z"/><path class="cls-1" d="m71.94,141.46l.53,12.34v.51c0,.37-.05.6-.14.69-.25.22-.52.32-.81.32s-.53-.08-.72-.23c-.18-.15-.28-.35-.28-.58.09-.18.14-.37.14-.55l-.14-.95v-4.69c0-.42-.83-.77-2.5-1.08-1.66-.3-2.9-.45-3.7-.45-.31,0-.59.57-.83,1.72-.25,1.15-.49,2.41-.72,3.78-.23,1.37-.46,2.23-.69,2.57-.74,0-1.23-.19-1.46-.58.49-.71.97-2.43,1.42-5.18.45-2.74.82-4.74,1.1-5.98.28-1.24.77-3.93,1.49-8.08s1.2-6.8,1.46-7.96c.25-1.16.45-2.02.59-2.58.14-.55.32-1.21.53-1.96.51-1.82.96-2.73,1.36-2.73.49,0,.82.11.98.34.16.22.3.75.42,1.57.12.82.23,1.87.35,3.14.12,1.27.22,2.44.31,3.5.29,3.33.47,5.52.54,6.57.07,1.05.21,1.8.43,2.27-.06.96-.09,1.78-.09,2.46s.14,1.28.42,1.79Zm-7.77,4.02c1.33.45,2.92.67,4.79.67.38,0,.67-.03.86-.09l.23.09c.29,0,.44-.15.44-.44,0-6.6-.62-13.71-1.85-21.34-.02-.09-.05-.26-.1-.51-.05-.25-.08-.44-.08-.58-.39,1.09-.59,1.79-.62,2.08l.14.28c-.11.11-.29.65-.53,1.63-.25.98-.59,3-1.03,6.06s-.76,5.02-.95,5.89c-.19.87-.4,1.66-.61,2.37-.45,1.57-.67,2.77-.67,3.61v.28Z"/><path class="cls-1" d="m87.38,152.76l.14,1.71c0,.92-.4,1.39-1.2,1.39-.56,0-.93-.59-1.13-1.78-.11-.55-.17-.86-.18-.92-3.08-9.72-5.02-16.83-5.83-21.31-.03-.14-.05-.35-.07-.65-.03-.63-.18-1.08-.44-1.34l.09-.23c-.2-1.17-.35-1.98-.45-2.44-.1-.45-.21-.97-.34-1.54-.22-1-.49-1.9-.83-2.7-.09.65-.14,1.14-.14,1.48s.03.6.09.79c-.22.74-.32,1.83-.32,3.28v12.97c0,1.51.11,3.76.32,6.75.22,2.99.32,5.24.32,6.75l-.32.37h-1.09l-.14-.37c.06-.25.09-.88.09-1.9l-.53-16.48v-6.2l.35-8.95-.05-.99c0-.4.1-.67.31-.8.21-.13.48-.2.81-.2s.62.1.87.29c.25.19.37.5.37.91s.07.87.21,1.36c.14.49.34,1.04.6,1.65.26.61.47,1.16.61,1.66.15.5.28,1.3.4,2.4.12,1.1.27,2.08.44,2.92.17.85.45,1.99.83,3.42.38,1.43.83,3.02,1.33,4.76.5,1.74.82,2.89.96,3.43.14.55.32,1.24.55,2.09.49,1.76.75,3,.79,3.72.22.32.38.95.5,1.87.12.92.37,1.56.77,1.9.2-.45.3-1.2.3-2.27l.18-16.48-.14-7.33.14-1.8c0-.34-.05-.54-.14-.6l.14-.39c0-1.94-.06-3.24-.18-3.88.12-.43.52-.65,1.18-.65.51,0,.76.52.76,1.55-.2.4-.3.92-.3,1.57l.05,1.6c0,.68-.06,1.16-.19,1.43l-.14,14.96c0,.29.03.72.09,1.27l-.09.21v5.96l.09,1.78c0,1.88-.15,3.18-.46,3.88v.09Z"/><path class="cls-1" d="m102.09,141.46l.53,12.34v.51c0,.37-.05.6-.14.69-.25.22-.52.32-.81.32s-.53-.08-.72-.23c-.18-.15-.28-.35-.28-.58.09-.18.14-.37.14-.55l-.14-.95v-4.69c0-.42-.83-.77-2.5-1.08-1.66-.3-2.9-.45-3.7-.45-.31,0-.59.57-.83,1.72-.25,1.15-.49,2.41-.72,3.78-.23,1.37-.46,2.23-.69,2.57-.74,0-1.23-.19-1.46-.58.49-.71.97-2.43,1.42-5.18.45-2.74.82-4.74,1.1-5.98.28-1.24.77-3.93,1.49-8.08s1.2-6.8,1.46-7.96c.25-1.16.45-2.02.59-2.58.14-.55.32-1.21.53-1.96.51-1.82.96-2.73,1.36-2.73.49,0,.82.11.98.34.16.22.3.75.42,1.57.12.82.23,1.87.35,3.14.12,1.27.22,2.44.31,3.5.29,3.33.47,5.52.54,6.57.07,1.05.21,1.8.43,2.27-.06.96-.09,1.78-.09,2.46s.14,1.28.42,1.79Zm-7.77,4.02c1.33.45,2.92.67,4.79.67.38,0,.67-.03.86-.09l.23.09c.29,0,.44-.15.44-.44,0-6.6-.62-13.71-1.85-21.34-.02-.09-.05-.26-.1-.51-.05-.25-.08-.44-.08-.58-.39,1.09-.59,1.79-.62,2.08l.14.28c-.11.11-.29.65-.53,1.63-.25.98-.59,3-1.03,6.06s-.76,5.02-.95,5.89c-.19.87-.4,1.66-.61,2.37-.45,1.57-.67,2.77-.67,3.61v.28Z"/><path class="cls-1" d="m26.26,174.38l-.03.14s.27.92.81,2.72c.36,1.4.53,2.48.53,3.23s-.09,1.5-.27,2.22c-.18.72-.44,1.42-.77,2.08-.34.67-.8,1.21-1.39,1.64-.59.43-1.16.64-1.7.64s-.93-.01-1.16-.03c-.68-.07-1.15-.35-1.43-.84,0-.29.12-.43.37-.43s.58.09,1,.27c.42.18.82.27,1.2.27s.78-.22,1.21-.65.76-.97.99-1.62c.46-1.31.69-2.53.69-3.67s-.17-2.3-.52-3.48-.77-2.26-1.26-3.23c-.5-.97-.99-1.95-1.49-2.92-1.18-2.32-1.77-4.51-1.77-6.57,0-1.71.52-3.07,1.55-4.09.56-.54,1.22-.81,1.98-.81.24,0,.55.09.93.28.38.19.61.39.69.59l-.21.4c-.53,0-.91-.12-1.15-.36-.56,0-1.04.21-1.44.64-.76.78-1.14,1.8-1.14,3.06,0,.93.07,1.7.22,2.31.15.61.26,1.08.34,1.4.08.32.22.73.43,1.22.21.49.36.86.46,1.1.1.24.29.64.57,1.19.28.55.46.91.55,1.07.09.16.3.55.64,1.16.34.61.54.98.59,1.09Z"/><path class="cls-1" d="m31.27,185.24l2.12-.12c1.1,0,1.65.19,1.65.57-.2.34-.54.56-1.05.66-.5.1-.99.15-1.46.15h-.83c-1.06,0-1.66-.08-1.82-.25-.16-.17-.24-.34-.24-.52l.33-1.31v-.07c-.09-.47-.14-.99-.14-1.55l.17-3.59-.21-7.53.17-7c0-.42-.07-1.05-.22-1.88-.15-.83-.23-1.44-.24-1.83l.64-.98,2.46-.31.12.1c.55,0,.87.07.95.22s.13.3.13.46c0,.45-.42.67-1.27.67l-.95-.07c-.52,0-.77.14-.77.41l.28,5.99-.17,4.4-.07.07.21.12,1.94-.36c.13,0,.26.07.41.2.15.13.22.27.22.4,0,.47-.18.71-.53.71l-.81-.03c-.89,0-1.34.22-1.34.67l.26,2.96-.12.21v7.16c.13.15.19.48.19.98v.33Z"/><path class="cls-1" d="m37.07,160.47l-.07-.64c0-.21.23-.31.71-.31.96,0,1.7.27,2.21.81.51.54.85,1.12,1.01,1.74.17.62.3,1.09.39,1.41.19.7.29,1.24.29,1.63,0,1.18-.33,2.6-.98,4.27-.42,1.06-.64,1.64-.64,1.75,0,1.15.46,3.46,1.38,6.94.92,3.48,1.67,5.95,2.25,7.41,0,.77-.15,1.15-.46,1.15-.24,0-.44-.11-.59-.32-.15-.21-.25-.34-.28-.37-.07-.92-.37-2.19-.9-3.83s-.86-2.72-.98-3.27c-.12-.54-.34-1.65-.64-3.33s-.58-2.96-.83-3.85l-.28-.21-.67.28v13.21l.07.88c0,.47-.21.71-.64.71-.17,0-.32-.05-.43-.16-.11-.11-.17-.25-.17-.42l.12-.19.14-21.38v-3.9Zm.98.17l-.17,7.69c0,1.01.03,1.76.1,2.25h.07c.17,0,.48-.24.92-.72.44-.48.75-.87.91-1.15s.3-.76.4-1.43c.1-.66.15-1.22.15-1.66s-.03-.9-.09-1.38c-.06-.48-.16-1-.3-1.57-.14-.56-.36-1.03-.65-1.4-.3-.37-.65-.56-1.05-.56v-.1l-.29.03Z"/><path class="cls-1" d="m45.82,160.47l-.07-.64c0-.21.23-.31.71-.31.96,0,1.7.27,2.21.81.51.54.85,1.12,1.01,1.74.17.62.3,1.09.39,1.41.19.7.29,1.24.29,1.63,0,1.18-.33,2.6-.98,4.27-.42,1.06-.64,1.64-.64,1.75,0,1.15.46,3.46,1.38,6.94.92,3.48,1.67,5.95,2.25,7.41,0,.77-.15,1.15-.46,1.15-.24,0-.44-.11-.59-.32-.15-.21-.25-.34-.28-.37-.07-.92-.37-2.19-.9-3.83s-.86-2.72-.98-3.27c-.12-.54-.34-1.65-.64-3.33s-.58-2.96-.83-3.85l-.28-.21-.67.28v13.21l.07.88c0,.47-.21.71-.64.71-.17,0-.32-.05-.43-.16-.11-.11-.17-.25-.17-.42l.12-.19.14-21.38v-3.9Zm.98.17l-.17,7.69c0,1.01.03,1.76.1,2.25h.07c.17,0,.48-.24.92-.72.44-.48.75-.87.91-1.15s.3-.76.4-1.43c.1-.66.15-1.22.15-1.66s-.03-.9-.09-1.38c-.06-.48-.16-1-.3-1.57-.14-.56-.36-1.03-.65-1.4-.3-.37-.65-.56-1.05-.56v-.1l-.29.03Z"/><path class="cls-1" d="m62.25,175.97l.4,9.19v.38c0,.28-.03.45-.1.52-.18.16-.38.24-.6.24s-.4-.06-.53-.17c-.14-.11-.21-.26-.21-.43.07-.14.1-.28.1-.41l-.1-.71v-3.49c0-.31-.62-.58-1.86-.8-1.24-.22-2.16-.34-2.75-.34-.23,0-.44.43-.62,1.28s-.36,1.79-.53,2.81c-.17,1.02-.34,1.66-.52,1.91-.55,0-.91-.14-1.08-.43.37-.53.72-1.81,1.06-3.85s.61-3.52.82-4.45c.21-.92.58-2.93,1.11-6.01s.89-5.06,1.08-5.93c.19-.87.34-1.5.44-1.92.1-.41.24-.9.4-1.46.38-1.35.72-2.03,1.01-2.03.37,0,.61.08.73.25.12.17.22.56.31,1.17s.17,1.39.26,2.34.16,1.81.23,2.61c.22,2.48.35,4.11.4,4.88.05.78.16,1.34.32,1.69-.05.71-.07,1.32-.07,1.83s.1.95.31,1.33Zm-5.78,2.99c.99.33,2.17.5,3.56.5.29,0,.5-.02.64-.07l.17.07c.22,0,.33-.11.33-.33,0-4.91-.46-10.2-1.38-15.88-.01-.07-.04-.2-.08-.38-.04-.18-.06-.33-.06-.43-.29.81-.44,1.33-.46,1.55l.1.21c-.08.08-.21.48-.4,1.21-.18.73-.44,2.23-.77,4.51s-.56,3.74-.71,4.39c-.14.65-.3,1.24-.46,1.76-.33,1.17-.5,2.06-.5,2.68v.21Z"/><path class="cls-1" d="m73.74,184.38l.1,1.27c0,.69-.3,1.03-.89,1.03-.41,0-.69-.44-.84-1.32-.08-.41-.13-.64-.14-.69-2.29-7.24-3.74-12.52-4.33-15.86-.02-.1-.04-.26-.05-.48-.02-.47-.13-.8-.33-1l.07-.17c-.15-.87-.26-1.48-.34-1.81-.07-.34-.16-.72-.25-1.14-.16-.75-.37-1.42-.62-2.01-.07.48-.1.85-.1,1.1s.02.45.07.58c-.16.55-.24,1.36-.24,2.44v9.65c0,1.12.08,2.8.24,5.02.16,2.22.24,3.9.24,5.02l-.24.28h-.81l-.1-.28c.05-.18.07-.65.07-1.41l-.4-12.26v-4.61l.26-6.66-.03-.74c0-.3.08-.5.23-.59.15-.1.36-.15.6-.15s.46.07.64.22c.18.14.28.37.28.68s.05.65.15,1.01c.1.37.25.78.45,1.23.2.45.35.87.46,1.24.11.37.21.97.3,1.79.09.82.2,1.55.33,2.18.13.63.33,1.48.62,2.55.29,1.07.62,2.25.99,3.54.37,1.3.61,2.15.71,2.55.1.41.24.93.41,1.56.37,1.31.56,2.23.58,2.77.16.24.28.71.37,1.39.09.69.28,1.16.58,1.41.15-.33.22-.89.22-1.69l.14-12.26-.1-5.45.1-1.34c0-.25-.03-.4-.1-.45l.1-.29c0-1.44-.05-2.41-.14-2.89.09-.32.38-.48.88-.48.38,0,.57.38.57,1.15-.15.3-.22.69-.22,1.17l.03,1.19c0,.5-.05.86-.14,1.07l-.1,11.13c0,.22.02.53.07.95l-.07.15v4.44l.07,1.32c0,1.4-.11,2.36-.34,2.89v.07Z"/><path class="cls-1" d="m84.68,175.97l.4,9.19v.38c0,.28-.03.45-.1.52-.18.16-.38.24-.6.24s-.4-.06-.53-.17c-.14-.11-.21-.26-.21-.43.07-.14.1-.28.1-.41l-.1-.71v-3.49c0-.31-.62-.58-1.86-.8-1.24-.22-2.16-.34-2.75-.34-.23,0-.44.43-.62,1.28s-.36,1.79-.53,2.81c-.17,1.02-.34,1.66-.52,1.91-.55,0-.91-.14-1.08-.43.37-.53.72-1.81,1.06-3.85s.61-3.52.82-4.45c.21-.92.58-2.93,1.11-6.01s.89-5.06,1.08-5.93c.19-.87.34-1.5.44-1.92.1-.41.24-.9.4-1.46.38-1.35.72-2.03,1.01-2.03.37,0,.61.08.73.25.12.17.22.56.31,1.17s.17,1.39.26,2.34.16,1.81.23,2.61c.22,2.48.35,4.11.4,4.88.05.78.16,1.34.32,1.69-.05.71-.07,1.32-.07,1.83s.1.95.31,1.33Zm-5.78,2.99c.99.33,2.17.5,3.56.5.29,0,.5-.02.64-.07l.17.07c.22,0,.33-.11.33-.33,0-4.91-.46-10.2-1.38-15.88-.01-.07-.04-.2-.08-.38-.04-.18-.06-.33-.06-.43-.29.81-.44,1.33-.46,1.55l.1.21c-.08.08-.21.48-.4,1.21-.18.73-.44,2.23-.77,4.51s-.56,3.74-.71,4.39c-.14.65-.3,1.24-.46,1.76-.33,1.17-.5,2.06-.5,2.68v.21Z"/><path class="cls-1" d="m5.95,197.2v-7.45h.67v6.83h2.01v.62h-2.68Z"/><path class="cls-1" d="m12,197.31c-.5.05-.86-.17-.94-.66h-.05c-.2.41-.52.68-1.04.68-.63,0-1.13-.54-1.13-1.4,0-.98.64-1.94,2.17-2.1v-.52c0-.7-.2-1.11-.78-1.11-.38,0-.85.26-1.17.62l-.12-.62c.32-.36.88-.6,1.34-.6.87,0,1.37.61,1.37,1.68v3.03c0,.31.11.45.39.44l-.05.55Zm-.99-2.97c-1.1.15-1.5.83-1.5,1.51,0,.6.29.87.67.87.35,0,.63-.29.83-.74v-1.64Z"/><path class="cls-1" d="m14.32,197.2v-7.45h1.03c1.36,0,2.09.87,2.09,2.31,0,1.63-.82,2.47-2.1,2.47h-.35v2.67h-.67Zm.97-3.28c.99,0,1.45-.61,1.45-1.84,0-1.1-.46-1.72-1.41-1.72h-.35v3.55h.3Z"/><path class="cls-1" d="m20.53,196.82c-.3.33-.63.51-1.1.51-1.18,0-1.73-.98-1.73-2.85s.63-2.87,1.66-2.87c.89,0,1.34.75,1.34,2.07,0,.23-.02.6-.06.83h-2.28c.01,1.53.31,2.23,1.12,2.23.38,0,.64-.2.89-.55l.15.62Zm-.46-3.18c0-.99-.26-1.45-.74-1.45-.58,0-.89.64-.95,1.81h1.69v-.36Z"/><path class="cls-1" d="m21.39,197.2v-5.44l.64-.15v1.1c.23-.75.54-1.1,1.03-1.1.21,0,.43.12.58.25l-.14.68c-.13-.13-.31-.29-.51-.29-.35,0-.66.48-.95,1.55v3.4h-.64Z"/><path class="cls-1" d="m24.01,197.2v-8.04l.64-.16v8.19h-.64Z"/><path class="cls-1" d="m28.43,197.31c-.5.05-.86-.17-.94-.66h-.05c-.2.41-.52.68-1.04.68-.63,0-1.13-.54-1.13-1.4,0-.98.64-1.94,2.17-2.1v-.52c0-.7-.2-1.11-.77-1.11-.38,0-.85.26-1.17.62l-.12-.62c.32-.36.88-.6,1.34-.6.87,0,1.37.61,1.37,1.68v3.03c0,.31.11.45.39.44l-.05.55Zm-.99-2.97c-1.1.15-1.5.83-1.5,1.51,0,.6.29.87.67.87.35,0,.63-.29.83-.74v-1.64Z"/><path class="cls-1" d="m32.99,197.2v-.52c-.23.39-.57.66-1.03.66-.92,0-1.49-1.11-1.49-2.8,0-1.79.66-2.92,1.66-2.92.36,0,.62.13.86.3v-2.74l.64-.16v8.19h-.64Zm0-4.65c-.19-.2-.45-.37-.75-.37-.7,0-1.1.92-1.1,2.31,0,1.29.35,2.21,1.01,2.21.37,0,.62-.26.83-.63v-3.52Z"/><path class="cls-1" d="m37.15,196.82c-.3.33-.63.51-1.1.51-1.18,0-1.73-.98-1.73-2.85s.63-2.87,1.66-2.87c.89,0,1.34.75,1.34,2.07,0,.23-.02.6-.06.83h-2.28c.01,1.53.31,2.23,1.12,2.23.38,0,.64-.2.89-.55l.15.62Zm-.46-3.18c0-.99-.26-1.45-.74-1.45-.58,0-.89.64-.95,1.81h1.69v-.36Z"/><path class="cls-1" d="m39.62,197.2v-8.04l.64-.16v8.19h-.64Z"/><path class="cls-1" d="m44.04,197.31c-.5.05-.86-.17-.94-.66h-.05c-.2.41-.52.68-1.04.68-.63,0-1.13-.54-1.13-1.4,0-.98.64-1.94,2.17-2.1v-.52c0-.7-.2-1.11-.78-1.11-.38,0-.85.26-1.17.62l-.12-.62c.32-.36.88-.6,1.34-.6.87,0,1.37.61,1.37,1.68v3.03c0,.31.11.45.39.44l-.05.55Zm-.99-2.97c-1.1.15-1.5.83-1.5,1.51,0,.6.29.87.67.87.35,0,.63-.29.83-.74v-1.64Z"/><path class="cls-1" d="m44.58,196.27c.31.29.6.48.95.48.5,0,.82-.3.82-.83,0-.49-.25-.86-.85-1.23-.66-.41-1.08-.93-1.08-1.69,0-.89.66-1.38,1.37-1.38.41,0,.8.15,1.07.36l-.15.62c-.29-.24-.57-.39-.91-.39-.43,0-.74.29-.74.77,0,.51.21.82.8,1.19.73.46,1.13,1.03,1.13,1.75,0,.86-.62,1.42-1.42,1.42-.43,0-.87-.18-1.16-.44l.15-.62Z"/><path class="cls-1" d="m49.28,197.2v-4.84l-.51-.05v-.43l.51-.14v-1.22c0-1.25.54-1.62,1.13-1.62.24,0,.5.1.72.24l-.13.58c-.17-.14-.36-.24-.54-.24-.32,0-.54.23-.54,1v1.25h.99l-.04.57h-.95v4.89h-.64Z"/><path class="cls-1" d="m51.3,197.2v-5.44l.64-.15v1.1c.23-.75.54-1.1,1.03-1.1.21,0,.43.12.58.25l-.14.68c-.13-.13-.31-.29-.51-.29-.35,0-.66.48-.95,1.55v3.4h-.64Z"/><path class="cls-1" d="m56.24,197.33v-.8c-.31.54-.78.8-1.2.8-.7,0-1.13-.55-1.13-1.51v-4.08h.64v3.97c0,.72.25,1.01.67,1.01.36,0,.72-.36,1.03-.86v-4.13h.64v5.44l-.64.16Z"/><path class="cls-1" d="m59.66,197.08c-.2.14-.54.25-.76.25-.56,0-1.08-.29-1.08-1.5v-3.47l-.51-.05v-.43l.51-.16v-1.26h.64v1.28h1.17l-.04.57h-1.13v3.55c0,.72.24.87.54.87.19,0,.42-.12.57-.26l.1.61Z"/><path class="cls-1" d="m62.93,197.31c-.5.05-.86-.17-.94-.66h-.05c-.2.41-.52.68-1.04.68-.63,0-1.13-.54-1.13-1.4,0-.98.64-1.94,2.17-2.1v-.52c0-.7-.2-1.11-.77-1.11-.38,0-.85.26-1.17.62l-.12-.62c.32-.36.88-.6,1.34-.6.87,0,1.37.61,1.37,1.68v3.03c0,.31.11.45.39.44l-.05.55Zm-.99-2.97c-1.1.15-1.5.83-1.5,1.51,0,.6.29.87.67.87.35,0,.63-.29.83-.74v-1.64Z"/><path class="cls-1" d="m63.46,196.27c.31.29.6.48.95.48.5,0,.82-.3.82-.83,0-.49-.25-.86-.85-1.23-.66-.41-1.08-.93-1.08-1.69,0-.89.66-1.38,1.37-1.38.41,0,.8.15,1.07.36l-.16.62c-.29-.24-.57-.39-.91-.39-.43,0-.74.29-.74.77,0,.51.21.82.8,1.19.73.46,1.13,1.03,1.13,1.75,0,.86-.62,1.42-1.42,1.42-.43,0-.87-.18-1.16-.44l.16-.62Z"/><path class="cls-1" d="m67.96,193.47c0-2.63.82-3.85,2.11-3.85s2.13,1.18,2.13,3.85-.82,3.86-2.12,3.86-2.12-1.19-2.12-3.86Zm3.54.02c0-2.24-.5-3.27-1.43-3.27s-1.42,1.01-1.42,3.22.52,3.27,1.43,3.27,1.42-1,1.42-3.22Z"/><path class="cls-1" d="m72.93,197.2v-5.44l.64-.15v1.1c.23-.75.54-1.1,1.03-1.1.21,0,.43.12.58.25l-.14.68c-.13-.13-.31-.29-.51-.29-.35,0-.66.48-.95,1.55v3.4h-.64Z"/><path class="cls-1" d="m76.96,196.71c1.13,0,1.76.5,1.76,1.42,0,1.1-.88,1.87-2.04,1.87s-1.78-.56-1.78-1.47c0-.61.41-1.14.94-1.35-.39-.14-.63-.54-.63-.94,0-.46.29-.79.64-.99-.37-.27-.64-.88-.64-1.62,0-1.3.63-2.03,1.53-2.03.37,0,.64.14.82.3l1.16-.07.04.62-.89-.06c.21.27.33.81.33,1.23,0,1.28-.63,1.98-1.48,1.98-.17,0-.39-.05-.55-.13-.26.13-.39.37-.39.64,0,.33.21.6.74.6h.44Zm-1.42,1.72c0,.58.36,1.03,1.2,1.03.79,0,1.31-.45,1.31-1.2,0-.63-.36-.92-1.16-.92-.21,0-.38,0-.6-.02-.46.18-.76.58-.76,1.12Zm2.01-4.8c0-.88-.24-1.45-.82-1.45s-.85.5-.85,1.48c0,.88.27,1.41.83,1.41s.83-.5.83-1.43Z"/><path class="cls-1" d="m81.97,197.31c-.5.05-.86-.17-.94-.66h-.05c-.2.41-.52.68-1.04.68-.63,0-1.13-.54-1.13-1.4,0-.98.64-1.94,2.17-2.1v-.52c0-.7-.2-1.11-.77-1.11-.38,0-.85.26-1.17.62l-.12-.62c.32-.36.88-.6,1.34-.6.87,0,1.37.61,1.37,1.68v3.03c0,.31.11.45.39.44l-.05.55Zm-.99-2.97c-1.1.15-1.5.83-1.5,1.51,0,.6.29.87.67.87.35,0,.63-.29.83-.74v-1.64Zm-1.07-3.3l.91-2.13h.79l-1.26,2.13h-.43Z"/><path class="cls-1" d="m84.95,197.2v-3.97c0-.72-.25-1.01-.67-1.01-.36,0-.72.36-1.03.86v4.12h-.64v-5.44l.64-.15v.8c.31-.54.77-.8,1.2-.8.7,0,1.13.55,1.13,1.51v4.08h-.64Z"/><path class="cls-1" d="m86.37,189.91c0-.3.17-.54.45-.54s.45.24.45.54-.17.54-.45.54-.45-.24-.45-.54Zm.13,7.28v-5.44l.64-.15v5.59h-.64Z"/><path class="cls-1" d="m90.64,196.82c-.27.32-.64.51-1.08.51-1.14,0-1.69-.99-1.69-2.86s.57-2.86,1.74-2.86c.43,0,.78.18,1.06.49l-.17.64c-.23-.33-.55-.55-.87-.55-.8,0-1.1.77-1.1,2.26s.3,2.29,1.1,2.29c.33,0,.61-.2.86-.55l.16.62Z"/><path class="cls-1" d="m94.24,197.31c-.5.05-.86-.17-.94-.66h-.05c-.2.41-.52.68-1.04.68-.63,0-1.13-.54-1.13-1.4,0-.98.64-1.94,2.17-2.1v-.52c0-.7-.2-1.11-.77-1.11-.38,0-.85.26-1.17.62l-.12-.62c.32-.36.88-.6,1.34-.6.87,0,1.37.61,1.37,1.68v3.03c0,.31.11.45.39.44l-.05.55Zm-.99-2.97c-1.1.15-1.5.83-1.5,1.51,0,.6.29.87.67.87.35,0,.63-.29.83-.74v-1.64Z"/><path class="cls-1" d="m94.78,196.27c.31.29.6.48.95.48.5,0,.82-.3.82-.83,0-.49-.25-.86-.85-1.23-.66-.41-1.08-.93-1.08-1.69,0-.89.66-1.38,1.37-1.38.41,0,.8.15,1.07.36l-.16.62c-.29-.24-.57-.39-.91-.39-.43,0-.74.29-.74.77,0,.51.21.82.8,1.19.73.46,1.13,1.03,1.13,1.75,0,.86-.62,1.42-1.42,1.42-.43,0-.87-.18-1.16-.44l.16-.62Z"/><path class="cls-1" d="m48.66,21.54c-2.85-1.51-5.94-2.46-8.86-3.82-2.46-1.15-4.49-2.83-6.06-5.06-1.47-2.08-1.88-4.47-2.08-6.92-.1-1.19-.02-2.39-.04-3.58,0-.45.14-.69.63-.61,3.78.64,7.55,1.29,10.9,3.36,3.46,2.13,5.75,5.15,7.02,8.98.63,1.89.89,3.83.88,5.82,0,.2.11.5-.14.6-.26.1-.36-.19-.5-.35-2.89-3.19-5.8-6.36-8.95-9.3-.99-.93-2.08-1.75-3.17-2.55-.12-.09-.28-.12-.45-.14,1.55,1.67,3.11,3.31,4.59,5.03,2.14,2.48,4.17,5.04,5.93,7.81.14.22.37.43.29.75h0Z"/><path class="cls-1" d="m55.26,21.51c-1.62,0-1.73-.09-1.59-1.51.33-3.36,1.01-6.63,2.38-9.73,1.78-4.04,4.27-7.51,8.09-9.89.91-.57,1.27-.53,2.03.25.92.94,1.44,2.09,1.8,3.33.21.72.02,1.14-.72,1.38-3.35,1.09-5.96,3.13-7.81,6.13-1.48,2.4-2.3,5.03-2.58,7.83-.03.28-.03.55-.06.83q-.15,1.38-1.53,1.38Z"/><path class="cls-1" d="m52.28,76.43c-.4.5.16,1.05.35,1.56,2.92,7.99,8.3,14.03,15.18,18.79,3.77,2.6,7.86,4.53,12.46,5.79-.21.16-.43.31-.65.47,1.4-.99,2.72-2.08,3.97-3.26-.65.62-1.32,1.21-2.02,1.78-.95-2.76-2.26-5.15-3.74-7.4-5.76-8.75-13.97-14.28-23.81-17.53-.54-.18-1.19-.87-1.74-.19Z"/><path class="cls-1" d="m53.21,71.34c9.53-.9,37.46-12.23,43.96-17.83-16.45-4.68-35.46,4.58-43.96,17.83Z"/><path class="cls-1" d="m73.96,36.49c-3.12,7.08-7.06,13.71-10.84,20.43,0,0,0,0,0,0-.1.17-.33.41-.28.5.24.39.46.11.67-.08,5.37-3.1,10.8-5.73,17.13-6.74,5.64-.9,11.19-1.27,16.63.07,2.04.5,3.56.29,4.96-.44.03.35.05.71.08,1.06-.27-4.46-1.16-8.88-2.85-13.25-3.36-8.68-9.62-14.01-18.8-15.82-.42-.08-.84-.15-1.25-.21-1.51,4.91-3.35,9.74-5.44,14.49Z"/><path class="cls-1" d="m59.6,26.18c-6.28,13.42-8.93,27.6-8.74,42.41,11.46-14.34,20.6-29.69,25.89-46.87.21.01.41.03.62.04-3.76-.3-7.5.11-11.23.85-1.8.36-3.58.8-5.36,1.22-.42.78-.82,1.57-1.18,2.34Z"/><path class="cls-1" d="m60.01,108.22c-.34-.04-.68-.09-1.01-.14.34.05.68.1,1.01.14Z"/><path class="cls-1" d="m57.69,92.1s.17.2.26.3c.07-.06.14-.12.21-.18-.1-.26-.24-.4-.47-.12Z"/><path class="cls-1" d="m57.91,107.89c.35.07.69.13,1.04.18-.35-.05-.69-.11-1.04-.18Z"/><path class="cls-1" d="m39.68,100.47c0-.65.59-1.59-.32-1.92-.78-.28-1.2.61-1.66,1.13-2.3,2.65-4.77,5.08-7.38,7.31-.25-.09-.49-.17-.74-.27,3.18,1.2,6.55,1.78,10.12,1.66,0-2.64.02-5.28-.02-7.92Z"/><path class="cls-1" d="m77.5,104.4c-5.27-1.75-10.08-4.46-14.47-8-1.67-1.35-2.88-3.22-4.87-4.18-.07.06-.15.12-.22.18-.18.75.17,1.42.33,2.12,1.04,4.58,1.74,9.16,1.73,13.69,4.17.52,8.36.17,12.43-1.37,2.07-.78,3.98-1.75,5.76-2.87-.23.14-.46.29-.7.43Z"/><path class="cls-1" d="m49.41,78.4c-1.51,3.72-2.44,6.99-4.19,9.87-.87,1.44-1.53,2.9-1.82,4.55-.9,5.14-1.31,10.27-1.37,15.4-.78.09-1.56.14-2.32.17,1.14-.04,2.29-.14,3.47-.32,4.92-.74,9.76-1.15,14.74-.19-.16-.03-.33-.06-.49-.09-.02-10.17-3.04-19.8-8.01-29.4Z"/><path class="cls-1" d="m29.55,106.72c-.24-.09-.47-.18-.71-.28.24.1.47.19.71.28Z"/><path class="cls-1" d="m102.36,52.46c.03.72.04,1.45.03,2.18-.94-.11-1.78.08-2.72.7-9.21,6.02-19.17,10.48-29.58,13.97-4.84,1.62-9.74,3.06-15.17,4.75.86.35,1.15.48,1.45.59,12.6,4.81,22.1,12.76,27.22,25.12,2.48-2.35,4.67-5.03,6.67-7.93,5.09-7.39,8.69-15.48,10.6-24.27,1.1-5.06,1.68-10.1,1.5-15.11Z"/><path class="cls-1" d="m102.35,52.37c-.01-.34-.03-.67-.05-1.01.02.34.04.67.05,1.01Z"/><path class="cls-1" d="m78.23,103.96c.21-.13.42-.27.63-.41-.21.14-.42.28-.63.41Z"/><path class="cls-1" d="m78.94,103.5c.19-.13.38-.26.57-.39-.19.13-.38.26-.57.39Z"/><path class="cls-1" d="m27.39,105.79c.06-.05.12-.1.18-.15,6.45-5.49,12.72-11.17,14.72-19.97.45-1.96,1.07-3.86,1.86-5.72.54-1.28,2.1-2.71,1.16-3.94-1.02-1.34-3.03-.6-4.54-.43-11.77,1.29-22.28,5.21-31.6,11.56,2.96,5.22,6.57,10,11.26,14.03,2.64,2.27,5.44,4.05,8.41,5.27-.49-.2-.97-.42-1.44-.65Z"/><path class="cls-1" d="m29.81,64.63c-11.02-9.75-17.31-21.93-21.45-35.38-1.23,1.3-2.35,2.79-3.33,4.47C1.09,40.47-.11,47.88,0,55.51c.04,2.29.21,4.56.5,6.8,9.85-.46,19.56.36,29.3,2.32Z"/><path class="cls-1" d="m.69,63.59c-.07-.43-.13-.85-.18-1.28.06.43.12.86.18,1.28Z"/><path class="cls-1" d="m7.79,84.58c9.33-6.25,20.43-10.41,33.73-12.04-1.91-1.56-3.31-2.49-5.01-3.01-7.88-2.4-15.93-3.82-24.15-4.45-3.84-.29-7.65-.34-11.44-.17.85,4.82,2.28,9.51,4.25,14.08,1.01,2.34,2.1,4.62,3.29,6.84-.22-.41-.44-.83-.66-1.25Z"/><path class="cls-1" d="m9.16,87.13c-.23-.41-.46-.82-.68-1.23.22.41.45.82.68,1.23Z"/><path class="cls-1" d="m.91,64.91c-.07-.42-.14-.84-.21-1.26.06.42.13.84.21,1.26Z"/><path class="cls-1" d="m46.97,68.7s3.48-37.76,12.39-44.52c-1.48.34-2.96.67-4.47.91-.38.06-.75.15-1.11.26-2.4.77-4.24.32-5.01.05-.36-.13-.72-.23-1.1-.31-2.51-.52-5.03-1-7.52-1.58-5.56-1.31-11.15-2.4-16.89-1.54-4.99.75-9.37,2.47-12.94,5.44,1.87,8,17.27,42.28,36.65,41.28Z"/></g></svg>