<?xml version="1.0" encoding="UTF-8"?><svg id="Capa_2" xmlns="http://www.w3.org/2000/svg" viewBox="0 0 365.53 92.36"><defs><style>.cls-1{fill:#fb3148;}.cls-1,.cls-2,.cls-3,.cls-4,.cls-5,.cls-6,.cls-7,.cls-8,.cls-9,.cls-10,.cls-11{stroke-width:0px;}.cls-2{fill:#783700;}.cls-3{fill:gray;}.cls-4{fill:#93b500;}.cls-5{fill:#d2747d;}.cls-6{fill:#df607e;}.cls-7{fill:#cfca5b;}.cls-8{fill:#c0525c;}.cls-9{fill:#eb2043;}.cls-10{fill:#eca03f;}.cls-11{fill:#ffde49;}</style></defs><g id="Capa_1-2"><path class="cls-4" d="m41.44,18.35c-2.43-1.29-5.06-2.1-7.55-3.25-2.1-.98-3.82-2.41-5.16-4.31-1.25-1.77-1.6-3.81-1.77-5.89-.08-1.01-.02-2.03-.04-3.05,0-.39.12-.59.53-.52,3.22.55,6.43,1.1,9.28,2.86,2.95,1.82,4.89,4.39,5.98,7.65.54,1.61.76,3.26.75,4.95,0,.17.09.42-.12.51-.22.09-.31-.17-.42-.3-2.46-2.71-4.94-5.42-7.62-7.92-.85-.79-1.77-1.49-2.7-2.17-.1-.08-.24-.11-.38-.12,1.32,1.42,2.65,2.82,3.91,4.28,1.82,2.11,3.55,4.3,5.05,6.65.12.19.32.37.25.64h0Z"/><path class="cls-2" d="m47.06,18.32c-1.38,0-1.48-.07-1.36-1.28.28-2.86.86-5.65,2.02-8.29,1.51-3.44,3.64-6.39,6.89-8.42.78-.48,1.08-.45,1.73.21.78.8,1.22,1.78,1.53,2.84.18.61.01.97-.61,1.17-2.85.93-5.08,2.67-6.66,5.22-1.26,2.05-1.96,4.28-2.2,6.67-.02.24-.03.47-.06.71q-.13,1.17-1.3,1.17Z"/><path class="cls-6" d="m44.53,65.09c-.34.43.14.89.3,1.33,2.48,6.81,7.07,11.95,12.93,16,3.21,2.22,6.69,3.86,10.61,4.93-.18.13-.37.27-.55.4,1.2-.84,2.32-1.78,3.38-2.78-.56.53-1.13,1.03-1.72,1.51-.81-2.35-1.93-4.38-3.19-6.3-4.91-7.45-11.9-12.16-20.28-14.93-.46-.15-1.01-.74-1.48-.16Z"/><path class="cls-4" d="m45.32,60.76c8.11-.77,31.9-10.42,37.44-15.18-14.01-3.99-30.2,3.9-37.44,15.18Z"/><path class="cls-11" d="m62.99,31.08c-2.65,6.03-6.01,11.68-9.23,17.4,0,0,0,0,0,0-.08.14-.28.35-.24.42.2.34.39.09.57-.07,4.57-2.64,9.2-4.88,14.59-5.74,4.81-.77,9.53-1.08,14.16.06,1.74.43,3.03.25,4.22-.37.03.3.05.6.06.91-.23-3.79-.99-7.56-2.43-11.29-2.86-7.39-8.19-11.93-16.01-13.48-.36-.07-.71-.13-1.07-.18-1.29,4.19-2.85,8.29-4.63,12.34Z"/><path class="cls-9" d="m50.76,22.3c-5.34,11.43-7.61,23.51-7.44,36.12,9.76-12.21,17.55-25.28,22.05-39.92.18.01.35.02.53.04-3.2-.25-6.39.1-9.56.73-1.53.3-3.05.68-4.56,1.04-.36.67-.7,1.33-1,1.99Z"/><path class="cls-1" d="m51.11,92.17c-.29-.04-.58-.08-.86-.12.29.05.58.09.86.12Z"/><path class="cls-1" d="m49.13,78.44s.14.17.22.26c.06-.05.12-.11.18-.15-.09-.22-.21-.34-.4-.1Z"/><path class="cls-1" d="m49.32,91.88c.29.06.59.11.88.15-.29-.05-.59-.1-.88-.15Z"/><path class="cls-7" d="m33.79,85.57c0-.56.5-1.36-.28-1.63-.66-.24-1.02.52-1.41.97-1.96,2.26-4.06,4.32-6.29,6.23-.21-.07-.42-.15-.63-.23,2.71,1.02,5.58,1.51,8.62,1.42,0-2.25.01-4.5-.02-6.75Z"/><path class="cls-8" d="m66.01,88.92c-4.49-1.49-8.58-3.8-12.33-6.82-1.42-1.15-2.46-2.74-4.15-3.56-.06.05-.12.1-.18.16-.15.64.14,1.21.28,1.8.88,3.9,1.48,7.8,1.48,11.66,3.55.44,7.12.15,10.59-1.16,1.76-.67,3.39-1.49,4.91-2.45-.2.12-.39.24-.59.36Z"/><path class="cls-11" d="m42.08,66.77c-1.29,3.17-2.08,5.96-3.57,8.41-.74,1.23-1.3,2.47-1.55,3.87-.77,4.38-1.12,8.75-1.17,13.11-.67.08-1.33.12-1.98.14.97-.03,1.95-.12,2.95-.27,4.19-.63,8.31-.98,12.56-.16-.14-.03-.28-.05-.42-.07-.01-8.67-2.59-16.86-6.82-25.04Z"/><path class="cls-1" d="m25.17,90.89c-.2-.08-.4-.16-.6-.24.2.08.4.16.6.24Z"/><path class="cls-10" d="m87.18,44.68c.02.62.03,1.23.03,1.85-.8-.1-1.52.07-2.32.6-7.84,5.13-16.33,8.93-25.19,11.9-4.12,1.38-8.29,2.6-12.92,4.05.73.3.98.41,1.23.5,10.73,4.1,18.82,10.87,23.19,21.4,2.11-2,3.98-4.28,5.68-6.75,4.34-6.29,7.4-13.19,9.03-20.67.94-4.31,1.43-8.6,1.28-12.87Z"/><path class="cls-1" d="m87.17,44.61c-.01-.29-.03-.57-.04-.86.02.29.03.57.04.86Z"/><path class="cls-1" d="m66.62,88.54c.18-.11.36-.23.54-.35-.18.12-.36.24-.54.35Z"/><path class="cls-1" d="m67.23,88.15c.16-.11.32-.22.48-.33-.16.11-.32.22-.48.33Z"/><path class="cls-7" d="m23.33,90.1s.1-.08.15-.12c5.49-4.67,10.83-9.51,12.54-17.01.38-1.67.91-3.29,1.58-4.87.46-1.09,1.78-2.31.99-3.36-.87-1.14-2.58-.51-3.87-.37-10.02,1.1-18.97,4.44-26.91,9.85,2.52,4.45,5.6,8.52,9.59,11.95,2.25,1.94,4.64,3.45,7.16,4.49-.41-.17-.82-.35-1.23-.55Z"/><path class="cls-5" d="m25.39,55.04c-9.38-8.3-14.74-18.68-18.27-30.13-1.05,1.11-2,2.37-2.84,3.81C.93,34.47-.09,40.77,0,47.27c.03,1.95.18,3.88.43,5.79,8.39-.39,16.66.31,24.96,1.98Z"/><path class="cls-1" d="m.59,54.16c-.06-.36-.11-.73-.16-1.09.05.37.1.73.16,1.09Z"/><path class="cls-10" d="m6.63,72.03c7.95-5.32,17.4-8.87,28.72-10.26-1.62-1.33-2.82-2.12-4.27-2.56-6.71-2.04-13.56-3.26-20.57-3.79-3.27-.25-6.52-.29-9.75-.15.72,4.1,1.94,8.1,3.62,11.99.86,1.99,1.79,3.94,2.8,5.82-.19-.35-.38-.71-.56-1.06Z"/><path class="cls-1" d="m7.8,74.2c-.2-.35-.39-.7-.58-1.05.19.35.38.7.58,1.05Z"/><path class="cls-1" d="m.77,55.28c-.06-.36-.12-.71-.18-1.07.06.36.11.72.18,1.07Z"/><path class="cls-1" d="m40.01,58.51s2.96-32.16,10.56-37.91c-1.26.29-2.52.57-3.8.77-.32.05-.64.12-.95.22-2.05.66-3.61.27-4.26.04-.31-.11-.62-.2-.93-.26-2.14-.45-4.28-.85-6.4-1.35-4.74-1.12-9.49-2.04-14.39-1.31-4.25.64-7.98,2.11-11.02,4.63,1.59,6.81,14.71,36.01,31.21,35.16Z"/><path class="cls-1" d="m127.51,14.98c.12-.67.62-1.01,1.5-1.01.14,0,.31.1.49.31.18.2.28.39.28.55-.14,2.8-.21,5.48-.21,8.05s.17,7.01.51,13.32c.34,6.31.5,10.54.5,12.7s-.02,3.5-.06,4.03c-.04.52,0,1.44.15,2.77.14,1.33.21,3,.21,5.02s-.31,3.17-.92,3.46v-.18l-.24.24-1.19-.49v-.18c0-.27.06-.52.18-.77l-.25-.55c.08-2.49.12-4.4.12-5.72l-.46-20.6.12-7.04c0-.71-.04-1.71-.11-3-.07-1.29-.12-2.14-.14-2.57-.08.08-.12.22-.12.43-.12,2.71-.71,6.84-1.78,12.37-.67,4.27-1.54,8.15-2.6,11.66-.06.22-.17.53-.34.92-.37.88-.55,1.55-.55,2.02l.18.31c-.04.14-.13.68-.28,1.62-.33,2.06-.9,3.09-1.71,3.09-.92,0-1.41-1.62-1.47-4.87,0-.53-.06-1.22-.17-2.07-.11-.85-1.04-5.4-2.79-13.65-1.75-8.26-2.74-12.56-2.98-12.9-.16,3.78-.25,8-.25,12.67l.18,19.93.31,5.97c0,.76-.16,1.3-.49,1.62-1.18,0-1.78-1.09-1.78-3.28l.34-10.47-.24-12.7.18-14.88c0-2.39-.02-4.18-.06-5.39l1.19-.67c.98.12,2.82,6.81,5.51,20.05.55,2.78.98,4.83,1.29,6.15s.52,2.27.64,2.83c.12.56.25,1.23.4,2.01.33,1.57.49,2.71.49,3.43.25-.63.64-2.36,1.19-5.17l.89-4.41c.25-1.18.81-4.19,1.7-9.02s1.47-7.9,1.76-9.23c.59-2.71.92-4.85.98-6.4l-.12-.31Z"/><path class="cls-1" d="m149.19,44.18l.7,16.35v.67c0,.49-.06.8-.18.92-.33.29-.68.43-1.07.43s-.7-.1-.95-.31c-.25-.2-.37-.46-.37-.77.12-.25.18-.49.18-.73l-.18-1.26v-6.21c0-.55-1.1-1.03-3.31-1.42s-3.84-.6-4.9-.6c-.41,0-.78.76-1.1,2.28-.33,1.52-.64,3.19-.95,5.01s-.61,2.95-.92,3.4c-.98,0-1.62-.25-1.93-.77.65-.94,1.28-3.22,1.88-6.86.6-3.63,1.09-6.27,1.45-7.91.37-1.64,1.03-5.21,1.97-10.7s1.59-9.01,1.93-10.55.6-2.68.78-3.41c.18-.73.42-1.6.7-2.6.67-2.41,1.27-3.61,1.81-3.61.65,0,1.09.15,1.3.44.21.3.4.99.55,2.08.15,1.09.31,2.48.46,4.16.15,1.68.29,3.23.41,4.64.39,4.41.63,7.31.72,8.69.09,1.39.28,2.39.57,3-.08,1.27-.12,2.35-.12,3.26s.18,1.7.55,2.37Zm-10.29,5.33c1.75.59,3.87.89,6.34.89.51,0,.89-.04,1.13-.12l.31.12c.39,0,.58-.19.58-.58,0-8.73-.82-18.15-2.45-28.26-.02-.12-.07-.35-.14-.67-.07-.33-.11-.58-.11-.77-.51,1.45-.79,2.37-.83,2.76l.18.37c-.14.14-.38.86-.7,2.16-.33,1.3-.78,3.97-1.36,8.02s-1,6.65-1.26,7.81c-.26,1.15-.53,2.2-.81,3.14-.59,2.08-.89,3.67-.89,4.78v.37Z"/><path class="cls-1" d="m169.64,59.15l.18,2.27c0,1.22-.53,1.84-1.59,1.84-.73,0-1.23-.79-1.5-2.36-.14-.73-.22-1.14-.24-1.22-4.08-12.88-6.65-22.29-7.71-28.23-.04-.18-.07-.47-.09-.86-.04-.84-.23-1.43-.58-1.78l.12-.31c-.27-1.55-.46-2.63-.6-3.23-.13-.6-.28-1.28-.44-2.04-.29-1.33-.65-2.52-1.1-3.58-.12.86-.18,1.51-.18,1.96s.04.8.12,1.04c-.29.98-.43,2.43-.43,4.35v17.17c0,2,.14,4.98.43,8.94s.43,6.94.43,8.94l-.43.49h-1.44l-.18-.49c.08-.33.12-1.16.12-2.51l-.7-21.83v-8.2l.46-11.85-.06-1.32c0-.53.14-.88.41-1.06s.63-.26,1.07-.26.82.13,1.15.38c.33.26.49.66.49,1.21s.09,1.15.28,1.81c.18.65.45,1.38.8,2.19.35.81.62,1.54.81,2.2.19.66.37,1.72.54,3.18.16,1.46.36,2.75.58,3.87.22,1.12.59,2.63,1.1,4.53.51,1.9,1.1,4,1.76,6.31.66,2.31,1.09,3.82,1.27,4.55.18.72.43,1.65.73,2.77.65,2.33,1,3.97,1.04,4.93.29.43.5,1.26.66,2.48.15,1.22.49,2.06,1.03,2.51.27-.59.4-1.59.4-3l.25-21.83-.18-9.7.18-2.39c0-.45-.06-.71-.18-.8l.18-.52c0-2.57-.08-4.29-.25-5.14.16-.57.68-.86,1.56-.86.67,0,1.01.68,1.01,2.05-.27.53-.4,1.22-.4,2.08l.06,2.11c0,.9-.08,1.53-.24,1.9l-.18,19.81c0,.39.04.95.12,1.68l-.12.28v7.9l.12,2.36c0,2.49-.2,4.2-.61,5.14v.12Z"/><path class="cls-1" d="m182.53,62.85l-7.44.25c-.43,0-.75-.27-.95-.8.9-1.57,1.56-3.38,1.99-5.42.43-2.04.78-4.31,1.04-6.8.27-2.49.53-4.34.8-5.54,1.33-10,2.23-16.6,2.72-19.81.61-4.2.94-6.9.98-8.08l-4.23.31c-1.88,0-2.82-.42-2.82-1.26l.46-.49c.33.08.83.12,1.5.12l5.88-.64c.67,0,1.01.38,1.01,1.13-.45,1-.75,2.58-.9,4.75-.15,2.16-.31,3.82-.47,4.96-.16,1.14-.75,5.57-1.74,13.29-1,7.71-1.84,13.63-2.51,17.76-.06.45-.32,1.2-.77,2.27-.45,1.06-.67,1.9-.67,2.51l4.07-.31c1.76,0,2.63.42,2.63,1.25l-.58.55Z"/><path class="cls-1" d="m201.02,44.18l.7,16.35v.67c0,.49-.06.8-.18.92-.33.29-.68.43-1.07.43s-.7-.1-.95-.31c-.25-.2-.37-.46-.37-.77.12-.25.18-.49.18-.73l-.18-1.26v-6.21c0-.55-1.1-1.03-3.31-1.42s-3.84-.6-4.9-.6c-.41,0-.78.76-1.1,2.28-.33,1.52-.64,3.19-.95,5.01-.31,1.82-.61,2.95-.92,3.4-.98,0-1.62-.25-1.93-.77.65-.94,1.28-3.22,1.88-6.86.6-3.63,1.09-6.27,1.45-7.91.37-1.64,1.03-5.21,1.97-10.7s1.59-9.01,1.93-10.55.6-2.68.78-3.41c.18-.73.42-1.6.7-2.6.67-2.41,1.28-3.61,1.81-3.61.65,0,1.09.15,1.3.44.21.3.4.99.55,2.08.15,1.09.31,2.48.46,4.16.15,1.68.29,3.23.41,4.64.39,4.41.63,7.31.72,8.69.09,1.39.28,2.39.57,3-.08,1.27-.12,2.35-.12,3.26s.18,1.7.55,2.37Zm-10.29,5.33c1.75.59,3.87.89,6.34.89.51,0,.89-.04,1.13-.12l.31.12c.39,0,.58-.19.58-.58,0-8.73-.82-18.15-2.45-28.26-.02-.12-.07-.35-.14-.67-.07-.33-.11-.58-.11-.77-.51,1.45-.79,2.37-.83,2.76l.18.37c-.14.14-.38.86-.7,2.16-.33,1.3-.78,3.97-1.36,8.02-.58,4.05-1,6.65-1.25,7.81-.26,1.15-.53,2.2-.81,3.14-.59,2.08-.89,3.67-.89,4.78v.37Z"/><path class="cls-1" d="m221.47,59.15l.18,2.27c0,1.22-.53,1.84-1.59,1.84-.73,0-1.24-.79-1.5-2.36-.14-.73-.22-1.14-.25-1.22-4.08-12.88-6.65-22.29-7.71-28.23-.04-.18-.07-.47-.09-.86-.04-.84-.23-1.43-.58-1.78l.12-.31c-.27-1.55-.46-2.63-.6-3.23-.13-.6-.28-1.28-.44-2.04-.29-1.33-.65-2.52-1.1-3.58-.12.86-.18,1.51-.18,1.96s.04.8.12,1.04c-.29.98-.43,2.43-.43,4.35v17.17c0,2,.14,4.98.43,8.94.29,3.96.43,6.94.43,8.94l-.43.49h-1.44l-.18-.49c.08-.33.12-1.16.12-2.51l-.7-21.83v-8.2l.46-11.85-.06-1.32c0-.53.14-.88.41-1.06s.63-.26,1.07-.26.82.13,1.15.38c.33.26.49.66.49,1.21s.09,1.15.28,1.81c.18.65.45,1.38.8,2.19s.62,1.54.81,2.2c.19.66.37,1.72.54,3.18.16,1.46.36,2.75.58,3.87.22,1.12.59,2.63,1.1,4.53.51,1.9,1.1,4,1.76,6.31s1.09,3.82,1.27,4.55c.18.72.43,1.65.73,2.77.65,2.33,1,3.97,1.04,4.93.29.43.5,1.26.66,2.48.15,1.22.5,2.06,1.03,2.51.27-.59.4-1.59.4-3l.25-21.83-.18-9.7.18-2.39c0-.45-.06-.71-.18-.8l.18-.52c0-2.57-.08-4.29-.25-5.14.16-.57.68-.86,1.56-.86.67,0,1.01.68,1.01,2.05-.27.53-.4,1.22-.4,2.08l.06,2.11c0,.9-.08,1.53-.24,1.9l-.18,19.81c0,.39.04.95.12,1.68l-.12.28v7.9l.12,2.36c0,2.49-.2,4.2-.61,5.14v.12Z"/><path class="cls-1" d="m240.95,44.18l.7,16.35v.67c0,.49-.06.8-.18.92-.33.29-.68.43-1.07.43s-.7-.1-.95-.31c-.25-.2-.37-.46-.37-.77.12-.25.18-.49.18-.73l-.18-1.26v-6.21c0-.55-1.1-1.03-3.31-1.42s-3.84-.6-4.9-.6c-.41,0-.78.76-1.1,2.28-.33,1.52-.64,3.19-.95,5.01-.31,1.82-.61,2.95-.92,3.4-.98,0-1.62-.25-1.93-.77.65-.94,1.28-3.22,1.88-6.86.6-3.63,1.09-6.27,1.45-7.91.37-1.64,1.03-5.21,1.97-10.7s1.59-9.01,1.93-10.55.6-2.68.78-3.41c.18-.73.42-1.6.7-2.6.67-2.41,1.28-3.61,1.81-3.61.65,0,1.09.15,1.3.44.21.3.4.99.55,2.08.15,1.09.31,2.48.46,4.16.15,1.68.29,3.23.41,4.64.39,4.41.63,7.31.72,8.69.09,1.39.28,2.39.57,3-.08,1.27-.12,2.35-.12,3.26s.18,1.7.55,2.37Zm-10.29,5.33c1.75.59,3.87.89,6.34.89.51,0,.89-.04,1.13-.12l.31.12c.39,0,.58-.19.58-.58,0-8.73-.82-18.15-2.45-28.26-.02-.12-.07-.35-.14-.67-.07-.33-.11-.58-.11-.77-.51,1.45-.79,2.37-.83,2.76l.18.37c-.14.14-.38.86-.7,2.16-.33,1.3-.78,3.97-1.36,8.02-.58,4.05-1,6.65-1.25,7.81-.26,1.15-.53,2.2-.81,3.14-.59,2.08-.89,3.67-.89,4.78v.37Z"/><path class="cls-4" d="m260.85,41.36l-.06.25s.48,1.63,1.44,4.84c.63,2.49.95,4.41.95,5.76s-.16,2.66-.47,3.95c-.32,1.29-.78,2.52-1.38,3.7-.6,1.18-1.43,2.16-2.48,2.92-1.05.77-2.06,1.15-3.03,1.15s-1.66-.02-2.07-.06c-1.2-.12-2.05-.62-2.54-1.5,0-.51.22-.77.66-.77s1.03.16,1.78.47c.74.32,1.45.47,2.13.47s1.39-.39,2.16-1.16c.77-.78,1.35-1.73,1.76-2.88.82-2.33,1.22-4.5,1.22-6.54s-.31-4.1-.92-6.2c-.61-2.1-1.36-4.02-2.25-5.76-.89-1.73-1.77-3.47-2.65-5.2-2.1-4.12-3.15-8.02-3.15-11.69,0-3.04.92-5.47,2.75-7.29,1-.96,2.17-1.44,3.52-1.44.43,0,.98.17,1.65.51.67.34,1.08.69,1.22,1.06l-.37.7c-.94,0-1.62-.21-2.05-.64-1,0-1.86.38-2.57,1.13-1.35,1.39-2.02,3.2-2.02,5.45,0,1.65.13,3.03.4,4.12.26,1.09.47,1.92.61,2.5.14.57.4,1.3.76,2.17.37.88.64,1.53.81,1.96s.51,1.13,1.01,2.11c.5.98.83,1.61.98,1.9.15.29.53.98,1.13,2.07.6,1.09.95,1.74,1.06,1.94Z"/><path class="cls-4" d="m269.76,60.68l3.77-.21c1.96,0,2.94.34,2.94,1.01-.35.61-.97,1.01-1.87,1.18-.9.17-1.77.26-2.6.26h-1.47c-1.88,0-2.96-.15-3.25-.44-.29-.3-.43-.61-.43-.93l.58-2.33v-.12c-.16-.84-.25-1.75-.25-2.75l.31-6.4-.37-13.41.31-12.46c0-.75-.13-1.87-.4-3.35-.27-1.48-.41-2.57-.43-3.26l1.13-1.75,4.38-.55.21.18c.98,0,1.55.13,1.7.38.15.26.23.53.23.81,0,.8-.75,1.19-2.27,1.19l-1.68-.12c-.92,0-1.38.25-1.38.73l.49,10.65-.31,7.84-.12.12.37.21,3.46-.64c.22,0,.47.12.73.35.27.23.4.47.4.72,0,.84-.32,1.25-.95,1.25l-1.44-.06c-1.59,0-2.39.4-2.39,1.19l.46,5.27-.21.37v12.74c.22.27.34.85.34,1.74v.58Z"/><path class="cls-4" d="m280.08,16.6l-.12-1.13c0-.37.42-.55,1.26-.55,1.71,0,3.03.48,3.93,1.44.91.96,1.51,1.99,1.81,3.09s.53,1.94.69,2.51c.35,1.25.52,2.21.52,2.91,0,2.1-.58,4.63-1.75,7.59-.76,1.88-1.13,2.92-1.13,3.12,0,2.04.82,6.16,2.45,12.35s2.97,10.59,4.01,13.18c0,1.37-.28,2.05-.83,2.05-.43,0-.78-.19-1.06-.57-.28-.38-.44-.6-.51-.66-.12-1.63-.66-3.9-1.61-6.81-.95-2.91-1.53-4.85-1.75-5.82-.21-.97-.6-2.94-1.15-5.92-.55-2.98-1.04-5.27-1.47-6.86l-.49-.37-1.19.49v23.51l.12,1.56c0,.84-.38,1.26-1.13,1.26-.31,0-.56-.1-.77-.29s-.31-.44-.31-.75l.21-.34.25-38.05v-6.95Zm1.75.31l-.31,13.68c0,1.8.06,3.13.18,4.01h.12c.31,0,.85-.43,1.64-1.29.79-.86,1.33-1.54,1.62-2.05s.54-1.36.72-2.54.28-2.17.28-2.95-.06-1.61-.17-2.46c-.11-.86-.29-1.79-.54-2.79-.25-1-.63-1.83-1.16-2.49-.53-.66-1.15-1-1.87-1v-.18l-.52.06Z"/><path class="cls-4" d="m295.66,16.6l-.12-1.13c0-.37.42-.55,1.25-.55,1.71,0,3.03.48,3.93,1.44.91.96,1.51,1.99,1.81,3.09s.53,1.94.69,2.51c.35,1.25.52,2.21.52,2.91,0,2.1-.58,4.63-1.75,7.59-.75,1.88-1.13,2.92-1.13,3.12,0,2.04.82,6.16,2.45,12.35s2.97,10.59,4.01,13.18c0,1.37-.28,2.05-.83,2.05-.43,0-.78-.19-1.06-.57s-.44-.6-.5-.66c-.12-1.63-.66-3.9-1.61-6.81s-1.53-4.85-1.75-5.82c-.21-.97-.6-2.94-1.15-5.92-.55-2.98-1.04-5.27-1.47-6.86l-.49-.37-1.19.49v23.51l.12,1.56c0,.84-.38,1.26-1.13,1.26-.31,0-.56-.1-.76-.29-.21-.19-.31-.44-.31-.75l.21-.34.24-38.05v-6.95Zm1.75.31l-.31,13.68c0,1.8.06,3.13.18,4.01h.12c.31,0,.85-.43,1.64-1.29.79-.86,1.33-1.54,1.62-2.05.29-.51.54-1.36.72-2.54.18-1.18.28-2.17.28-2.95s-.06-1.61-.17-2.46c-.11-.86-.29-1.79-.54-2.79-.25-1-.63-1.83-1.16-2.49-.53-.66-1.15-1-1.87-1v-.18l-.52.06Z"/><path class="cls-4" d="m324.9,44.18l.7,16.35v.67c0,.49-.06.8-.18.92-.33.29-.68.43-1.07.43s-.7-.1-.95-.31c-.25-.2-.37-.46-.37-.77.12-.25.18-.49.18-.73l-.18-1.26v-6.21c0-.55-1.1-1.03-3.31-1.42s-3.84-.6-4.9-.6c-.41,0-.78.76-1.1,2.28-.33,1.52-.64,3.19-.95,5.01-.31,1.82-.61,2.95-.92,3.4-.98,0-1.62-.25-1.93-.77.65-.94,1.28-3.22,1.88-6.86.6-3.63,1.09-6.27,1.45-7.91.37-1.64,1.03-5.21,1.97-10.7s1.59-9.01,1.93-10.55.6-2.68.78-3.41c.18-.73.42-1.6.7-2.6.67-2.41,1.28-3.61,1.81-3.61.65,0,1.09.15,1.3.44.21.3.4.99.55,2.08.15,1.09.31,2.48.46,4.16.15,1.68.29,3.23.41,4.64.39,4.41.63,7.31.72,8.69.09,1.39.28,2.39.57,3-.08,1.27-.12,2.35-.12,3.26s.18,1.7.55,2.37Zm-10.29,5.33c1.75.59,3.87.89,6.34.89.51,0,.89-.04,1.13-.12l.31.12c.39,0,.58-.19.58-.58,0-8.73-.82-18.15-2.45-28.26-.02-.12-.07-.35-.14-.67-.07-.33-.11-.58-.11-.77-.51,1.45-.79,2.37-.83,2.76l.18.37c-.14.14-.38.86-.7,2.16-.33,1.3-.78,3.97-1.36,8.02-.58,4.05-1,6.65-1.25,7.81-.26,1.15-.53,2.2-.81,3.14-.59,2.08-.89,3.67-.89,4.78v.37Z"/><path class="cls-4" d="m345.36,59.15l.18,2.27c0,1.22-.53,1.84-1.59,1.84-.73,0-1.23-.79-1.5-2.36-.14-.73-.22-1.14-.24-1.22-4.08-12.88-6.65-22.29-7.71-28.23-.04-.18-.07-.47-.09-.86-.04-.84-.24-1.43-.58-1.78l.12-.31c-.27-1.55-.46-2.63-.6-3.23s-.28-1.28-.44-2.04c-.29-1.33-.65-2.52-1.1-3.58-.12.86-.18,1.51-.18,1.96s.04.8.12,1.04c-.29.98-.43,2.43-.43,4.35v17.17c0,2,.14,4.98.43,8.94.29,3.96.43,6.94.43,8.94l-.43.49h-1.44l-.18-.49c.08-.33.12-1.16.12-2.51l-.7-21.83v-8.2l.46-11.85-.06-1.32c0-.53.14-.88.41-1.06s.63-.26,1.07-.26.82.13,1.15.38c.33.26.49.66.49,1.21s.09,1.15.28,1.81c.18.65.45,1.38.8,2.19.35.81.62,1.54.81,2.2.19.66.37,1.72.54,3.18.16,1.46.36,2.75.58,3.87.22,1.12.59,2.63,1.1,4.53.51,1.9,1.1,4,1.76,6.31.66,2.31,1.09,3.82,1.27,4.55.18.72.43,1.65.73,2.77.65,2.33,1,3.97,1.04,4.93.29.43.5,1.26.66,2.48.15,1.22.49,2.06,1.03,2.51.26-.59.4-1.59.4-3l.25-21.83-.18-9.7.18-2.39c0-.45-.06-.71-.18-.8l.18-.52c0-2.57-.08-4.29-.25-5.14.16-.57.68-.86,1.56-.86.67,0,1.01.68,1.01,2.05-.27.53-.4,1.22-.4,2.08l.06,2.11c0,.9-.08,1.53-.25,1.9l-.18,19.81c0,.39.04.95.12,1.68l-.12.28v7.9l.12,2.36c0,2.49-.2,4.2-.61,5.14v.12Z"/><path class="cls-4" d="m364.83,44.18l.7,16.35v.67c0,.49-.06.8-.18.92-.33.29-.68.43-1.07.43s-.7-.1-.95-.31c-.25-.2-.37-.46-.37-.77.12-.25.18-.49.18-.73l-.18-1.26v-6.21c0-.55-1.1-1.03-3.31-1.42s-3.84-.6-4.9-.6c-.41,0-.78.76-1.1,2.28-.33,1.52-.64,3.19-.95,5.01-.31,1.82-.61,2.95-.92,3.4-.98,0-1.62-.25-1.93-.77.65-.94,1.28-3.22,1.88-6.86.6-3.63,1.09-6.27,1.45-7.91.37-1.64,1.03-5.21,1.97-10.7s1.59-9.01,1.93-10.55.6-2.68.78-3.41c.18-.73.42-1.6.7-2.6.67-2.41,1.28-3.61,1.81-3.61.65,0,1.09.15,1.3.44.21.3.4.99.55,2.08.15,1.09.31,2.48.46,4.16.15,1.68.29,3.23.41,4.64.39,4.41.63,7.31.72,8.69.09,1.39.28,2.39.57,3-.08,1.27-.12,2.35-.12,3.26s.18,1.7.55,2.37Zm-10.29,5.33c1.75.59,3.87.89,6.34.89.51,0,.89-.04,1.13-.12l.31.12c.39,0,.58-.19.58-.58,0-8.73-.82-18.15-2.45-28.26-.02-.12-.07-.35-.14-.67-.07-.33-.11-.58-.11-.77-.51,1.45-.79,2.37-.83,2.76l.18.37c-.14.14-.38.86-.7,2.16-.33,1.3-.78,3.97-1.36,8.02-.58,4.05-1,6.65-1.25,7.81-.26,1.15-.53,2.2-.81,3.14-.59,2.08-.89,3.67-.89,4.78v.37Z"/><path class="cls-3" d="m177.11,80.64v-9.87h.88v9.05h2.67v.82h-3.55Z"/><path class="cls-3" d="m185.13,80.78c-.66.06-1.14-.22-1.25-.87h-.06c-.27.54-.69.9-1.37.9-.84,0-1.5-.71-1.5-1.85,0-1.3.85-2.57,2.87-2.78v-.69c0-.93-.27-1.47-1.03-1.47-.51,0-1.12.35-1.55.82l-.16-.82c.43-.47,1.17-.79,1.77-.79,1.15,0,1.82.81,1.82,2.23v4.01c0,.41.14.6.52.58l-.06.73Zm-1.31-3.93c-1.45.21-1.99,1.11-1.99,2.01,0,.79.38,1.15.88,1.15.46,0,.84-.38,1.11-.98v-2.18Z"/><path class="cls-3" d="m188.19,80.64v-9.87h1.36c1.8,0,2.76,1.15,2.76,3.06,0,2.16-1.09,3.27-2.78,3.27h-.46v3.54h-.88Zm1.28-4.34c1.31,0,1.93-.81,1.93-2.43,0-1.45-.62-2.27-1.86-2.27h-.46v4.71h.39Z"/><path class="cls-3" d="m196.42,80.13c-.39.44-.84.68-1.45.68-1.56,0-2.29-1.29-2.29-3.77s.84-3.81,2.2-3.81c1.18,0,1.77.99,1.77,2.75,0,.3-.03.79-.08,1.11h-3.02c.02,2.02.41,2.95,1.48,2.95.5,0,.85-.27,1.18-.73l.21.82Zm-.62-4.22c0-1.31-.35-1.93-.98-1.93-.77,0-1.18.85-1.26,2.4h2.24v-.47Z"/><path class="cls-3" d="m197.56,80.64v-7.2l.85-.21v1.45c.3-.99.71-1.45,1.36-1.45.28,0,.57.16.77.33l-.19.9c-.17-.17-.41-.38-.68-.38-.46,0-.87.63-1.26,2.05v4.5h-.85Z"/><path class="cls-3" d="m201.03,80.64v-10.64l.85-.21v10.85h-.85Z"/><path class="cls-3" d="m206.89,80.78c-.66.06-1.14-.22-1.25-.87h-.06c-.27.54-.69.9-1.37.9-.84,0-1.5-.71-1.5-1.85,0-1.3.85-2.57,2.87-2.78v-.69c0-.93-.27-1.47-1.03-1.47-.5,0-1.12.35-1.55.82l-.16-.82c.43-.47,1.17-.79,1.77-.79,1.15,0,1.82.81,1.82,2.23v4.01c0,.41.14.6.52.58l-.06.73Zm-1.31-3.93c-1.45.21-1.99,1.11-1.99,2.01,0,.79.38,1.15.88,1.15.46,0,.84-.38,1.11-.98v-2.18Z"/><path class="cls-3" d="m212.92,80.64v-.69c-.3.52-.76.87-1.36.87-1.22,0-1.97-1.47-1.97-3.71,0-2.37.87-3.87,2.2-3.87.47,0,.82.17,1.14.39v-3.63l.85-.21v10.85h-.85Zm0-6.16c-.25-.27-.6-.49-.99-.49-.93,0-1.45,1.22-1.45,3.06,0,1.71.46,2.92,1.34,2.92.49,0,.82-.35,1.11-.84v-4.66Z"/><path class="cls-3" d="m218.43,80.13c-.39.44-.84.68-1.45.68-1.56,0-2.29-1.29-2.29-3.77s.84-3.81,2.2-3.81c1.18,0,1.77.99,1.77,2.75,0,.3-.03.79-.08,1.11h-3.02c.02,2.02.41,2.95,1.48,2.95.51,0,.85-.27,1.18-.73l.21.82Zm-.62-4.22c0-1.31-.35-1.93-.98-1.93-.77,0-1.18.85-1.26,2.4h2.24v-.47Z"/><path class="cls-3" d="m221.7,80.64v-10.64l.85-.21v10.85h-.85Z"/><path class="cls-3" d="m227.56,80.78c-.66.06-1.14-.22-1.25-.87h-.06c-.27.54-.69.9-1.37.9-.84,0-1.5-.71-1.5-1.85,0-1.3.85-2.57,2.87-2.78v-.69c0-.93-.27-1.47-1.03-1.47-.5,0-1.12.35-1.55.82l-.16-.82c.43-.47,1.17-.79,1.77-.79,1.15,0,1.82.81,1.82,2.23v4.01c0,.41.14.6.52.58l-.06.73Zm-1.31-3.93c-1.45.21-1.99,1.11-1.99,2.01,0,.79.38,1.15.88,1.15.46,0,.84-.38,1.11-.98v-2.18Z"/><path class="cls-3" d="m228.27,79.4c.41.38.79.63,1.26.63.66,0,1.09-.4,1.09-1.11,0-.65-.33-1.14-1.12-1.63-.87-.54-1.44-1.23-1.44-2.24,0-1.18.87-1.83,1.82-1.83.54,0,1.06.21,1.42.47l-.21.82c-.38-.32-.76-.52-1.2-.52-.57,0-.98.38-.98,1.03,0,.68.28,1.09,1.06,1.58.96.62,1.5,1.36,1.5,2.32,0,1.14-.82,1.88-1.88,1.88-.57,0-1.15-.24-1.53-.58l.21-.82Z"/><path class="cls-3" d="m234.49,80.64v-6.41l-.68-.06v-.57l.68-.19v-1.61c0-1.66.71-2.15,1.5-2.15.32,0,.66.13.95.32l-.17.77c-.22-.19-.47-.32-.71-.32-.43,0-.71.3-.71,1.33v1.66h1.31l-.05.76h-1.26v6.48h-.85Z"/><path class="cls-3" d="m237.17,80.64v-7.2l.85-.21v1.45c.3-.99.71-1.45,1.36-1.45.28,0,.57.16.77.33l-.19.9c-.17-.17-.41-.38-.68-.38-.46,0-.87.63-1.26,2.05v4.5h-.85Z"/><path class="cls-3" d="m243.71,80.81v-1.06c-.41.71-1.03,1.06-1.6,1.06-.93,0-1.5-.73-1.5-2.01v-5.4h.85v5.26c0,.95.33,1.34.88,1.34.47,0,.95-.47,1.36-1.14v-5.46h.85v7.2l-.85.21Z"/><path class="cls-3" d="m248.24,80.48c-.27.19-.71.33-1.01.33-.74,0-1.44-.38-1.44-1.99v-4.6l-.68-.06v-.57l.68-.21v-1.67h.85v1.69h1.55l-.05.76h-1.5v4.71c0,.95.32,1.15.71,1.15.25,0,.55-.16.76-.35l.13.81Z"/><path class="cls-3" d="m252.57,80.78c-.66.06-1.14-.22-1.25-.87h-.06c-.27.54-.7.9-1.37.9-.84,0-1.5-.71-1.5-1.85,0-1.3.85-2.57,2.87-2.78v-.69c0-.93-.27-1.47-1.03-1.47-.51,0-1.12.35-1.55.82l-.16-.82c.43-.47,1.17-.79,1.77-.79,1.15,0,1.82.81,1.82,2.23v4.01c0,.41.14.6.52.58l-.06.73Zm-1.31-3.93c-1.45.21-1.99,1.11-1.99,2.01,0,.79.38,1.15.88,1.15.46,0,.84-.38,1.11-.98v-2.18Z"/><path class="cls-3" d="m253.28,79.4c.41.38.79.63,1.26.63.66,0,1.09-.4,1.09-1.11,0-.65-.33-1.14-1.12-1.63-.87-.54-1.44-1.23-1.44-2.24,0-1.18.87-1.83,1.82-1.83.54,0,1.06.21,1.42.47l-.21.82c-.38-.32-.76-.52-1.2-.52-.57,0-.98.38-.98,1.03,0,.68.28,1.09,1.06,1.58.96.62,1.5,1.36,1.5,2.32,0,1.14-.82,1.88-1.88,1.88-.57,0-1.15-.24-1.53-.58l.21-.82Z"/><path class="cls-3" d="m259.23,75.69c0-3.49,1.09-5.1,2.79-5.1s2.83,1.56,2.83,5.1-1.09,5.12-2.81,5.12-2.81-1.58-2.81-5.12Zm4.69.03c0-2.97-.66-4.33-1.9-4.33s-1.88,1.34-1.88,4.26.69,4.33,1.89,4.33,1.88-1.33,1.88-4.26Z"/><path class="cls-3" d="m265.82,80.64v-7.2l.85-.21v1.45c.3-.99.71-1.45,1.36-1.45.28,0,.57.16.77.33l-.19.9c-.17-.17-.41-.38-.68-.38-.46,0-.87.63-1.26,2.05v4.5h-.85Z"/><path class="cls-3" d="m271.15,79.99c1.5,0,2.34.66,2.34,1.88,0,1.45-1.17,2.48-2.7,2.48-1.45,0-2.35-.74-2.35-1.94,0-.81.54-1.52,1.25-1.78-.52-.19-.84-.71-.84-1.25,0-.62.38-1.04.85-1.31-.49-.36-.85-1.17-.85-2.15,0-1.72.84-2.68,2.02-2.68.49,0,.85.19,1.09.39l1.53-.09.05.82-1.18-.08c.28.36.44,1.07.44,1.63,0,1.69-.84,2.62-1.96,2.62-.22,0-.52-.06-.73-.17-.35.17-.52.49-.52.85,0,.44.28.79.98.79h.58Zm-1.88,2.27c0,.77.47,1.36,1.59,1.36,1.04,0,1.74-.6,1.74-1.6,0-.84-.47-1.22-1.53-1.22-.28,0-.5,0-.79-.03-.62.24-1.01.77-1.01,1.48Zm2.67-6.36c0-1.17-.32-1.93-1.09-1.93s-1.12.66-1.12,1.96c0,1.17.36,1.86,1.11,1.86s1.11-.66,1.11-1.9Z"/><path class="cls-3" d="m277.78,80.78c-.66.06-1.14-.22-1.25-.87h-.06c-.27.54-.7.9-1.37.9-.84,0-1.5-.71-1.5-1.85,0-1.3.85-2.57,2.87-2.78v-.69c0-.93-.27-1.47-1.03-1.47-.51,0-1.12.35-1.55.82l-.16-.82c.43-.47,1.17-.79,1.77-.79,1.15,0,1.82.81,1.82,2.23v4.01c0,.41.14.6.52.58l-.06.73Zm-1.31-3.93c-1.45.21-1.99,1.11-1.99,2.01,0,.79.38,1.15.88,1.15.46,0,.84-.38,1.11-.98v-2.18Zm-1.42-4.38l1.2-2.83h1.04l-1.67,2.83h-.57Z"/><path class="cls-3" d="m281.73,80.64v-5.26c0-.95-.33-1.34-.88-1.34-.47,0-.95.47-1.36,1.14v5.46h-.85v-7.2l.85-.21v1.06c.41-.71,1.03-1.06,1.59-1.06.93,0,1.5.73,1.5,2.01v5.4h-.85Z"/><path class="cls-3" d="m283.61,70.99c0-.4.22-.71.6-.71s.6.32.6.71-.22.71-.6.71-.6-.32-.6-.71Zm.17,9.65v-7.2l.85-.21v7.41h-.85Z"/><path class="cls-3" d="m289.26,80.13c-.36.43-.85.68-1.44.68-1.52,0-2.24-1.31-2.24-3.79s.76-3.79,2.31-3.79c.57,0,1.03.24,1.41.65l-.22.85c-.3-.44-.73-.73-1.15-.73-1.06,0-1.45,1.03-1.45,3s.4,3.03,1.45,3.03c.44,0,.81-.27,1.14-.73l.21.82Z"/><path class="cls-3" d="m294.03,80.78c-.66.06-1.14-.22-1.25-.87h-.06c-.27.54-.69.9-1.37.9-.84,0-1.5-.71-1.5-1.85,0-1.3.85-2.57,2.87-2.78v-.69c0-.93-.27-1.47-1.03-1.47-.5,0-1.12.35-1.55.82l-.16-.82c.43-.47,1.17-.79,1.77-.79,1.15,0,1.82.81,1.82,2.23v4.01c0,.41.14.6.52.58l-.06.73Zm-1.31-3.93c-1.45.21-1.99,1.11-1.99,2.01,0,.79.38,1.15.88,1.15.46,0,.84-.38,1.11-.98v-2.18Z"/><path class="cls-3" d="m294.74,79.4c.41.38.79.63,1.26.63.66,0,1.09-.4,1.09-1.11,0-.65-.33-1.14-1.12-1.63-.87-.54-1.44-1.23-1.44-2.24,0-1.18.87-1.83,1.82-1.83.54,0,1.06.21,1.42.47l-.21.82c-.38-.32-.76-.52-1.2-.52-.57,0-.98.38-.98,1.03,0,.68.28,1.09,1.06,1.58.96.62,1.5,1.36,1.5,2.32,0,1.14-.82,1.88-1.88,1.88-.57,0-1.15-.24-1.53-.58l.21-.82Z"/></g></svg>